<svg width="235" height="95" viewBox="0 0 235 95" fill="none" xmlns="http://www.w3.org/2000/svg">
<rect width="235" height="95" fill="white"/>
<path d="M16.875 14.9091H26.7045L33.4659 31.3864H33.8068L40.5682 14.9091H50.3977V44H42.6705V27.1818H42.4432L35.9659 43.7727H31.3068L24.8295 27.0682H24.6023V44H16.875V14.9091ZM69.6662 44H61.1435L70.7457 14.9091H81.5412L91.1435 44H82.6207L76.2571 22.9205H76.0298L69.6662 44ZM68.0753 32.5227H84.098V38.4318H68.0753V32.5227ZM101.914 44V14.9091H122.369V21.2727H109.812V26.2727H121.119V32.6364H109.812V44H101.914ZM141.14 14.9091V44H133.242V14.9091H141.14ZM160.408 44H151.886L161.488 14.9091H172.283L181.886 44H173.363L166.999 22.9205H166.772L160.408 44ZM158.817 32.5227H174.84V38.4318H158.817V32.5227Z" fill="#2D0066"/>
</svg>
