<svg width="300" height="75" viewBox="0 0 300 75" fill="none" xmlns="http://www.w3.org/2000/svg">
<rect width="300" height="75" fill="white"/>
<path d="M44.56 51.4C44.08 51.4 43.7067 51.32 43.44 51.16C43.2 51 43.0267 50.7867 42.92 50.52C42.8133 50.2267 42.76 49.9067 42.76 49.56V25.24C42.76 24.8933 42.8133 24.6 42.92 24.36C43.0267 24.0933 43.2133 23.88 43.48 23.72C43.7467 23.56 44.1333 23.48 44.64 23.48C45.04 23.48 45.36 23.5067 45.6 23.56C45.84 23.6133 46.0267 23.6933 46.16 23.8C46.32 23.88 46.48 24.0133 46.64 24.2L57.08 39.32H55.84L66.4 24.08C66.56 23.8933 66.72 23.76 66.88 23.68C67.04 23.6 67.24 23.5467 67.48 23.52C67.7467 23.4933 68.0533 23.48 68.4 23.48C68.9067 23.48 69.28 23.56 69.52 23.72C69.7867 23.88 69.9733 24.1067 70.08 24.4C70.1867 24.6667 70.24 24.9733 70.24 25.32V49.64C70.24 49.96 70.1867 50.2533 70.08 50.52C69.9733 50.7867 69.7867 51 69.52 51.16C69.2533 51.32 68.8667 51.4 68.36 51.4C67.88 51.4 67.5067 51.32 67.24 51.16C67 51 66.8267 50.7867 66.72 50.52C66.64 50.2267 66.6 49.9067 66.6 49.56V29.48L58.04 42.08C57.96 42.2133 57.8533 42.3467 57.72 42.48C57.5867 42.5867 57.4133 42.68 57.2 42.76C57.0133 42.84 56.7733 42.88 56.48 42.88C56.16 42.88 55.9067 42.84 55.72 42.76C55.56 42.68 55.4133 42.5867 55.28 42.48C55.1467 42.3467 55.0133 42.2 54.88 42.04L46.36 29.52V49.64C46.36 49.96 46.3067 50.2533 46.2 50.52C46.12 50.7867 45.9467 51 45.68 51.16C45.44 51.32 45.0667 51.4 44.56 51.4ZM100.015 48.84C100.229 49.24 100.335 49.5867 100.335 49.88C100.362 50.1467 100.282 50.4 100.095 50.64C99.9086 50.8533 99.6153 51.0533 99.2153 51.24C98.5753 51.5333 98.0686 51.6 97.6953 51.44C97.3486 51.28 97.0286 50.8933 96.7353 50.28L86.7353 29L76.8153 50.24C76.522 50.8533 76.1886 51.24 75.8153 51.4C75.4686 51.56 74.962 51.4933 74.2953 51.2C73.8953 51.04 73.602 50.84 73.4153 50.6C73.2553 50.36 73.1886 50.0667 73.2153 49.72C73.2686 49.3733 73.402 48.9733 73.6153 48.52L85.0953 24.56C85.2553 24.24 85.482 23.9867 85.7753 23.8C86.0953 23.5867 86.4286 23.48 86.7753 23.48C87.0153 23.48 87.242 23.52 87.4553 23.6C87.6686 23.68 87.8553 23.8 88.0153 23.96C88.1753 24.12 88.3086 24.3333 88.4153 24.6L100.015 48.84ZM79.2153 43.44L80.5753 40.36H92.9753L94.2953 43.44H79.2153ZM105.699 51.4C105.166 51.4 104.766 51.32 104.499 51.16C104.259 51.0267 104.099 50.8267 104.019 50.56C103.939 50.2667 103.899 49.9333 103.899 49.56V25.28C103.899 24.5867 104.033 24.12 104.299 23.88C104.593 23.6133 105.099 23.48 105.819 23.48H121.899C122.273 23.48 122.579 23.52 122.819 23.6C123.086 23.68 123.286 23.8533 123.419 24.12C123.553 24.3867 123.619 24.7867 123.619 25.32C123.619 25.8533 123.539 26.2533 123.379 26.52C123.246 26.76 123.046 26.92 122.779 27C122.513 27.08 122.193 27.12 121.819 27.12H107.499V35.4H117.459C117.833 35.4 118.139 35.44 118.379 35.52C118.646 35.6 118.846 35.76 118.979 36C119.113 36.24 119.179 36.6133 119.179 37.12C119.179 37.6 119.113 37.96 118.979 38.2C118.846 38.44 118.646 38.6 118.379 38.68C118.139 38.7333 117.819 38.76 117.419 38.76H107.499V49.6C107.499 49.9733 107.459 50.2933 107.379 50.56C107.299 50.8267 107.126 51.0267 106.859 51.16C106.619 51.32 106.233 51.4 105.699 51.4ZM130.414 51.4C129.88 51.4 129.48 51.32 129.214 51.16C128.974 51.0267 128.814 50.8267 128.734 50.56C128.654 50.2667 128.614 49.9333 128.614 49.56V25.28C128.614 24.9067 128.654 24.5867 128.734 24.32C128.84 24.0533 129.014 23.8533 129.254 23.72C129.52 23.56 129.92 23.48 130.454 23.48C130.987 23.48 131.374 23.56 131.614 23.72C131.88 23.8533 132.04 24.0533 132.094 24.32C132.174 24.5867 132.214 24.92 132.214 25.32V49.6C132.214 49.9733 132.174 50.2933 132.094 50.56C132.014 50.8267 131.84 51.0267 131.574 51.16C131.334 51.32 130.947 51.4 130.414 51.4ZM161.773 48.84C161.986 49.24 162.093 49.5867 162.093 49.88C162.12 50.1467 162.04 50.4 161.853 50.64C161.666 50.8533 161.373 51.0533 160.973 51.24C160.333 51.5333 159.826 51.6 159.453 51.44C159.106 51.28 158.786 50.8933 158.493 50.28L148.493 29L138.573 50.24C138.28 50.8533 137.946 51.24 137.573 51.4C137.226 51.56 136.72 51.4933 136.053 51.2C135.653 51.04 135.36 50.84 135.173 50.6C135.013 50.36 134.946 50.0667 134.973 49.72C135.026 49.3733 135.16 48.9733 135.373 48.52L146.853 24.56C147.013 24.24 147.24 23.9867 147.533 23.8C147.853 23.5867 148.186 23.48 148.533 23.48C148.773 23.48 149 23.52 149.213 23.6C149.426 23.68 149.613 23.8 149.773 23.96C149.933 24.12 150.066 24.3333 150.173 24.6L161.773 48.84ZM140.973 43.44L142.333 40.36H154.733L156.053 43.44H140.973ZM177.013 51.44C176.213 51.44 175.653 51.28 175.333 50.96C175.013 50.64 174.853 50.1067 174.853 49.36C174.853 48.8 174.92 48.3733 175.053 48.08C175.187 47.76 175.413 47.5333 175.733 47.4C176.053 47.24 176.48 47.16 177.013 47.16C177.813 47.16 178.36 47.32 178.653 47.64C178.973 47.96 179.133 48.52 179.133 49.32C179.133 49.8533 179.067 50.28 178.933 50.6C178.8 50.8933 178.573 51.1067 178.253 51.24C177.96 51.3733 177.547 51.44 177.013 51.44ZM185.691 51.4C185.184 51.4 184.798 51.32 184.531 51.16C184.291 51.0267 184.131 50.8267 184.051 50.56C183.971 50.2933 183.931 49.9733 183.931 49.6V33.8C183.931 33.4267 183.971 33.1067 184.051 32.84C184.131 32.5733 184.291 32.3733 184.531 32.24C184.798 32.1067 185.198 32.04 185.731 32.04C186.238 32.04 186.611 32.12 186.851 32.28C187.091 32.4133 187.251 32.6133 187.331 32.88C187.411 33.1467 187.451 33.48 187.451 33.88V49.64C187.451 50.0133 187.411 50.3333 187.331 50.6C187.251 50.8667 187.078 51.0667 186.811 51.2C186.571 51.3333 186.198 51.4 185.691 51.4ZM185.691 27.24C185.104 27.24 184.664 27.16 184.371 27C184.078 26.8133 183.878 26.56 183.771 26.24C183.691 25.92 183.651 25.5467 183.651 25.12C183.651 24.6933 183.704 24.3333 183.811 24.04C183.918 23.72 184.118 23.4933 184.411 23.36C184.704 23.2 185.144 23.12 185.731 23.12C186.291 23.12 186.718 23.2 187.011 23.36C187.304 23.52 187.491 23.76 187.571 24.08C187.678 24.4 187.731 24.7733 187.731 25.2C187.731 25.6267 187.678 26 187.571 26.32C187.491 26.6133 187.304 26.84 187.011 27C186.718 27.16 186.278 27.24 185.691 27.24ZM194.396 51.4C193.89 51.4 193.516 51.32 193.276 51.16C193.036 51 192.876 50.7867 192.796 50.52C192.716 50.2533 192.676 49.9333 192.676 49.56V33.72C192.676 33.3467 192.716 33.04 192.796 32.8C192.876 32.56 193.036 32.3733 193.276 32.24C193.543 32.1067 193.93 32.04 194.436 32.04C195.023 32.04 195.436 32.16 195.676 32.4C195.943 32.6133 196.076 33 196.076 33.56L195.916 35.28C196.103 34.88 196.383 34.48 196.756 34.08C197.13 33.68 197.57 33.32 198.076 33C198.61 32.68 199.17 32.4267 199.756 32.24C200.343 32.0533 200.943 31.96 201.556 31.96C202.49 31.96 203.316 32.1333 204.036 32.48C204.783 32.8 205.45 33.2667 206.036 33.88C206.623 34.4933 207.116 35.2533 207.516 36.16C208.05 35.28 208.61 34.5333 209.196 33.92C209.81 33.28 210.503 32.8 211.276 32.48C212.05 32.1333 212.916 31.96 213.876 31.96C215.396 31.96 216.663 32.3467 217.676 33.12C218.716 33.8667 219.49 34.9333 219.996 36.32C220.53 37.68 220.796 39.32 220.796 41.24V49.6C220.796 49.9733 220.756 50.2933 220.676 50.56C220.623 50.8267 220.463 51.0267 220.196 51.16C219.956 51.32 219.57 51.4 219.036 51.4C218.53 51.4 218.143 51.32 217.876 51.16C217.636 51 217.476 50.7867 217.396 50.52C217.316 50.2533 217.276 49.9333 217.276 49.56V41.2C217.276 40 217.13 38.9733 216.836 38.12C216.57 37.24 216.143 36.56 215.556 36.08C214.996 35.6 214.263 35.36 213.356 35.36C212.396 35.36 211.543 35.6 210.796 36.08C210.076 36.5333 209.516 37.2 209.116 38.08C208.716 38.96 208.516 40 208.516 41.2V49.64C208.516 50.04 208.436 50.3867 208.276 50.68C208.116 50.9733 207.876 51.1733 207.556 51.28C207.236 51.4133 206.85 51.44 206.396 51.36C205.97 51.3067 205.65 51.2 205.436 51.04C205.223 50.88 205.09 50.68 205.036 50.44C204.983 50.1733 204.956 49.88 204.956 49.56V41.2C204.956 40 204.81 38.9733 204.516 38.12C204.25 37.24 203.823 36.56 203.236 36.08C202.676 35.6 201.943 35.36 201.036 35.36C200.076 35.36 199.223 35.6133 198.476 36.12C197.756 36.6 197.196 37.28 196.796 38.16C196.396 39.04 196.196 40.0533 196.196 41.2V49.6C196.196 49.9733 196.156 50.2933 196.076 50.56C195.996 50.8267 195.823 51.0267 195.556 51.16C195.316 51.32 194.93 51.4 194.396 51.4ZM231.803 51.4C230.95 51.4 230.176 51.32 229.483 51.16C228.816 51.0267 228.23 50.8 227.723 50.48C227.216 50.16 226.79 49.7467 226.443 49.24C226.123 48.7333 225.883 48.12 225.723 47.4C225.59 46.68 225.523 45.84 225.523 44.88V24.88C225.523 24.48 225.55 24.1467 225.603 23.88C225.683 23.6133 225.856 23.4133 226.123 23.28C226.39 23.12 226.763 23.04 227.243 23.04C227.776 23.04 228.163 23.1067 228.403 23.24C228.67 23.3733 228.843 23.5733 228.923 23.84C229.003 24.1067 229.043 24.4267 229.043 24.8V44.84C229.043 45.3733 229.096 45.84 229.203 46.24C229.31 46.6133 229.47 46.9333 229.683 47.2C229.923 47.4667 230.216 47.6533 230.563 47.76C230.91 47.8667 231.323 47.92 231.803 47.92C232.123 47.92 232.39 47.96 232.603 48.04C232.843 48.12 233.03 48.28 233.163 48.52C233.296 48.76 233.363 49.1333 233.363 49.64C233.363 50.1733 233.296 50.5733 233.163 50.84C233.03 51.08 232.843 51.2267 232.603 51.28C232.39 51.36 232.123 51.4 231.803 51.4ZM253.453 51.36C252.866 51.36 252.44 51.24 252.173 51C251.933 50.76 251.786 50.3867 251.733 49.88L251.893 47.88C251.626 48.3067 251.213 48.8 250.653 49.36C250.093 49.8933 249.36 50.3733 248.453 50.8C247.546 51.2 246.44 51.4 245.133 51.4C243.853 51.4 242.653 51.1467 241.533 50.64C240.44 50.1333 239.466 49.4267 238.613 48.52C237.786 47.6133 237.133 46.5733 236.653 45.4C236.2 44.2267 235.973 42.9733 235.973 41.64C235.973 40.3333 236.2 39.1067 236.653 37.96C237.133 36.7867 237.8 35.76 238.653 34.88C239.506 34 240.48 33.3067 241.573 32.8C242.693 32.2933 243.88 32.04 245.133 32.04C246.306 32.04 247.306 32.2 248.133 32.52C248.96 32.8133 249.666 33.2133 250.253 33.72C250.866 34.2 251.4 34.7467 251.853 35.36L251.773 33.68C251.746 33.0933 251.866 32.68 252.133 32.44C252.426 32.1733 252.88 32.04 253.493 32.04C254 32.04 254.36 32.12 254.573 32.28C254.813 32.44 254.973 32.6667 255.053 32.96C255.133 33.2533 255.173 33.6133 255.173 34.04V49.48C255.173 49.8533 255.133 50.1867 255.053 50.48C254.973 50.7733 254.813 50.9867 254.573 51.12C254.333 51.28 253.96 51.36 253.453 51.36ZM245.733 48.04C246.8 48.04 247.773 47.76 248.653 47.2C249.56 46.64 250.266 45.8933 250.773 44.96C251.306 44 251.573 42.9067 251.573 41.68C251.573 40.4267 251.293 39.3333 250.733 38.4C250.2 37.44 249.48 36.6933 248.573 36.16C247.693 35.6 246.72 35.32 245.653 35.32C244.4 35.32 243.306 35.6133 242.373 36.2C241.466 36.76 240.746 37.52 240.213 38.48C239.68 39.44 239.413 40.5333 239.413 41.76C239.413 42.96 239.68 44.04 240.213 45C240.746 45.9333 241.48 46.68 242.413 47.24C243.373 47.7733 244.48 48.04 245.733 48.04Z" fill="#2D0066"/>
</svg>
