<svg width="235" height="95" viewBox="0 0 235 95" fill="none" xmlns="http://www.w3.org/2000/svg">
<path d="M16.875 14.9091V14.6591H16.625V14.9091H16.875ZM26.7045 14.9091L26.9358 14.8142L26.8722 14.6591H26.7045V14.9091ZM33.4659 31.3864L33.2346 31.4813L33.2983 31.6364H33.4659V31.3864ZM33.8068 31.3864V31.6364H33.9745L34.0381 31.4813L33.8068 31.3864ZM40.5682 14.9091V14.6591H40.4005L40.3369 14.8142L40.5682 14.9091ZM50.3977 14.9091H50.6477V14.6591H50.3977V14.9091ZM50.3977 44V44.25H50.6477V44H50.3977ZM42.6705 44H42.4205V44.25H42.6705V44ZM42.6705 27.1818H42.9205V26.9318H42.6705V27.1818ZM42.4432 27.1818V26.9318H42.2724L42.2103 27.0909L42.4432 27.1818ZM35.9659 43.7727V44.0227H36.1367L36.1988 43.8636L35.9659 43.7727ZM31.3068 43.7727L31.0737 43.8631L31.1356 44.0227H31.3068V43.7727ZM24.8295 27.0682L25.0626 26.9778L25.0007 26.8182H24.8295V27.0682ZM24.6023 27.0682V26.8182H24.3523V27.0682H24.6023ZM24.6023 44V44.25H24.8523V44H24.6023ZM16.875 44H16.625V44.25H16.875V44ZM16.625 14.9091V15.3939H17.125V14.9091H16.625ZM16.625 16.3636V17.3333H17.125V16.3636H16.625ZM16.625 18.303V19.2727H17.125V18.303H16.625ZM16.625 20.2424V21.2121H17.125V20.2424H16.625ZM16.625 22.1818V23.1515H17.125V22.1818H16.625ZM16.625 24.1212V25.0909H17.125V24.1212H16.625ZM16.625 26.0606V27.0303H17.125V26.0606H16.625ZM16.625 28V28.9697H17.125V28H16.625ZM16.625 29.9394V30.9091H17.125V29.9394H16.625ZM16.625 31.8788V32.8485H17.125V31.8788H16.625ZM16.625 33.8182V34.7879H17.125V33.8182H16.625ZM16.625 35.7576V36.7273H17.125V35.7576H16.625ZM16.625 37.697V38.6667H17.125V37.697H16.625ZM16.625 39.6364V40.606H17.125V39.6364H16.625ZM16.625 41.5757V42.5454H17.125V41.5757H16.625ZM16.625 43.5151V44H17.125V43.5151H16.625ZM16.875 44.25H17.358V43.75H16.875V44.25ZM18.3239 44.25H19.2898V43.75H18.3239V44.25ZM20.2557 44.25H21.2216V43.75H20.2557V44.25ZM22.1875 44.25H23.1534V43.75H22.1875V44.25ZM24.1193 44.25H24.6023V43.75H24.1193V44.25ZM24.8523 44V43.4709H24.3523V44H24.8523ZM24.8523 42.4126V41.3544H24.3523V42.4126H24.8523ZM24.8523 40.2962V39.2379H24.3523V40.2962H24.8523ZM24.8523 38.1797V37.1214H24.3523V38.1797H24.8523ZM24.8523 36.0632V35.005H24.3523V36.0632H24.8523ZM24.8523 33.9467V32.8885H24.3523V33.9467H24.8523ZM24.8523 31.8303V30.772H24.3523V31.8303H24.8523ZM24.8523 29.7138V28.6555H24.3523V29.7138H24.8523ZM24.8523 27.5973V27.0682H24.3523V27.5973H24.8523ZM24.6023 27.3182H24.6591V26.8182H24.6023V27.3182ZM24.7727 27.3182H24.8295V26.8182H24.7727V27.3182ZM24.5965 27.1586L24.7764 27.6226L25.2426 27.4418L25.0626 26.9778L24.5965 27.1586ZM25.1362 28.5506L25.4961 29.4786L25.9623 29.2979L25.6024 28.3698L25.1362 28.5506ZM25.8559 30.4067L26.2158 31.3347L26.682 31.1539L26.3221 30.2259L25.8559 30.4067ZM26.5756 32.2627L26.9355 33.1908L27.4017 33.01L27.0418 32.082L26.5756 32.2627ZM27.2953 34.1188L27.6552 35.0468L28.1213 34.8661L27.7615 33.938L27.2953 34.1188ZM28.015 35.9749L28.3749 36.9029L28.841 36.7221L28.4812 35.7941L28.015 35.9749ZM28.7347 37.8309L29.0946 38.7589L29.5607 38.5782L29.2009 37.6501L28.7347 37.8309ZM29.4544 39.687L29.8143 40.615L30.2804 40.4342L29.9206 39.5062L29.4544 39.687ZM30.1741 41.543L30.534 42.4711L31.0001 42.2903L30.6403 41.3623L30.1741 41.543ZM30.8938 43.3991L31.0737 43.8631L31.5399 43.6823L31.36 43.2183L30.8938 43.3991ZM31.3068 44.0227H31.8892V43.5227H31.3068V44.0227ZM33.054 44.0227H34.2188V43.5227H33.054V44.0227ZM35.3835 44.0227H35.9659V43.5227H35.3835V44.0227ZM36.1988 43.8636L36.3787 43.4028L35.913 43.2209L35.733 43.6818L36.1988 43.8636ZM36.7386 42.4811L37.0984 41.5594L36.6326 41.3775L36.2728 42.2992L36.7386 42.4811ZM37.4583 40.6376L37.8181 39.7159L37.3523 39.5341L36.9925 40.4558L37.4583 40.6376ZM38.178 38.7942L38.5378 37.8725L38.072 37.6906L37.7122 38.6124L38.178 38.7942ZM38.8977 36.9508L39.2575 36.0291L38.7917 35.8472L38.4319 36.7689L38.8977 36.9508ZM39.6174 35.1073L39.9772 34.1856L39.5114 34.0038L39.1516 34.9255L39.6174 35.1073ZM40.337 33.2639L40.6969 32.3422L40.2311 32.1603L39.8713 33.0821L40.337 33.2639ZM41.0567 31.4205L41.4166 30.4987L40.9508 30.3169L40.591 31.2386L41.0567 31.4205ZM41.7764 29.577L42.1363 28.6553L41.6705 28.4735L41.3107 29.3952L41.7764 29.577ZM42.4961 27.7336L42.6761 27.2727L42.2103 27.0909L42.0304 27.5518L42.4961 27.7336ZM42.4432 27.4318H42.5V26.9318H42.4432V27.4318ZM42.6136 27.4318H42.6705V26.9318H42.6136V27.4318ZM42.4205 27.1818V27.7074H42.9205V27.1818H42.4205ZM42.4205 28.7585V29.8097H42.9205V28.7585H42.4205ZM42.4205 30.8608V31.9119H42.9205V30.8608H42.4205ZM42.4205 32.9631V34.0142H42.9205V32.9631H42.4205ZM42.4205 35.0653V36.1165H42.9205V35.0653H42.4205ZM42.4205 37.1676V38.2187H42.9205V37.1676H42.4205ZM42.4205 39.2699V40.321H42.9205V39.2699H42.4205ZM42.4205 41.3722V42.4233H42.9205V41.3722H42.4205ZM42.4205 43.4744V44H42.9205V43.4744H42.4205ZM42.6705 44.25H43.1534V43.75H42.6705V44.25ZM44.1193 44.25H45.0852V43.75H44.1193V44.25ZM46.0511 44.25H47.017V43.75H46.0511V44.25ZM47.983 44.25H48.9489V43.75H47.983V44.25ZM49.9148 44.25H50.3977V43.75H49.9148V44.25ZM50.6477 44V43.5152H50.1477V44H50.6477ZM50.6477 42.5455V41.5758H50.1477V42.5455H50.6477ZM50.6477 40.6061V39.6364H50.1477V40.6061H50.6477ZM50.6477 38.6667V37.697H50.1477V38.6667H50.6477ZM50.6477 36.7273V35.7576H50.1477V36.7273H50.6477ZM50.6477 34.7879V33.8182H50.1477V34.7879H50.6477ZM50.6477 32.8485V31.8788H50.1477V32.8485H50.6477ZM50.6477 30.9091V29.9394H50.1477V30.9091H50.6477ZM50.6477 28.9697V28H50.1477V28.9697H50.6477ZM50.6477 27.0303V26.0606H50.1477V27.0303H50.6477ZM50.6477 25.0909V24.1212H50.1477V25.0909H50.6477ZM50.6477 23.1515V22.1818H50.1477V23.1515H50.6477ZM50.6477 21.2121V20.2424H50.1477V21.2121H50.6477ZM50.6477 19.2727V18.303H50.1477V19.2727H50.6477ZM50.6477 17.3333V16.3636H50.1477V17.3333H50.6477ZM50.6477 15.394V14.9091H50.1477V15.394H50.6477ZM50.3977 14.6591H49.9063V15.1591H50.3977V14.6591ZM48.9233 14.6591H47.9403V15.1591H48.9233V14.6591ZM46.9574 14.6591H45.9744V15.1591H46.9574V14.6591ZM44.9915 14.6591H44.0085V15.1591H44.9915V14.6591ZM43.0256 14.6591H42.0426V15.1591H43.0256V14.6591ZM41.0597 14.6591H40.5682V15.1591H41.0597V14.6591ZM40.3369 14.8142L40.1491 15.2719L40.6117 15.4617L40.7995 15.004L40.3369 14.8142ZM39.7735 16.1873L39.3978 17.1027L39.8604 17.2925L40.236 16.3771L39.7735 16.1873ZM39.0222 18.0181L38.6466 18.9335L39.1091 19.1233L39.4848 18.2079L39.0222 18.0181ZM38.2709 19.8489L37.8953 20.7643L38.3579 20.9541L38.7335 20.0387L38.2709 19.8489ZM37.5197 21.6797L37.144 22.5951L37.6066 22.7849L37.9822 21.8695L37.5197 21.6797ZM36.7684 23.5105L36.3928 24.4259L36.8553 24.6157L37.231 23.7003L36.7684 23.5105ZM36.0171 25.3413L35.6415 26.2567L36.1041 26.4465L36.4797 25.5311L36.0171 25.3413ZM35.2659 27.1721L34.8902 28.0875L35.3528 28.2774L35.7284 27.362L35.2659 27.1721ZM34.5146 29.0029L34.139 29.9183L34.6016 30.1082L34.9772 29.1928L34.5146 29.0029ZM33.7633 30.8338L33.5755 31.2915L34.0381 31.4813L34.2259 31.0236L33.7633 30.8338ZM33.8068 31.1364H33.7216V31.6364H33.8068V31.1364ZM33.5511 31.1364H33.4659V31.6364H33.5511V31.1364ZM33.6972 31.2915L33.5094 30.8338L33.0468 31.0236L33.2346 31.4813L33.6972 31.2915ZM33.1337 29.9184L32.7581 29.0029L32.2955 29.1928L32.6712 30.1082L33.1337 29.9184ZM32.3825 28.0875L32.0069 27.1721L31.5443 27.362L31.9199 28.2774L32.3825 28.0875ZM31.6312 26.2567L31.2556 25.3413L30.793 25.5311L31.1687 26.4465L31.6312 26.2567ZM30.88 24.4259L30.5043 23.5105L30.0418 23.7003L30.4174 24.6157L30.88 24.4259ZM30.1287 22.5951L29.7531 21.6797L29.2905 21.8695L29.6661 22.7849L30.1287 22.5951ZM29.3774 20.7643L29.0018 19.8489L28.5392 20.0387L28.9149 20.9541L29.3774 20.7643ZM28.6262 18.9335L28.2505 18.0181L27.788 18.2079L28.1636 19.1233L28.6262 18.9335ZM27.8749 17.1027L27.4993 16.1873L27.0367 16.3771L27.4123 17.2925L27.8749 17.1027ZM27.1236 15.2719L26.9358 14.8142L26.4733 15.004L26.6611 15.4617L27.1236 15.2719ZM26.7045 14.6591H26.2131V15.1591H26.7045V14.6591ZM25.2301 14.6591H24.2472V15.1591H25.2301V14.6591ZM23.2642 14.6591H22.2813V15.1591H23.2642V14.6591ZM21.2983 14.6591H20.3153V15.1591H21.2983V14.6591ZM19.3324 14.6591H18.3494V15.1591H19.3324V14.6591ZM17.3665 14.6591H16.875V15.1591H17.3665V14.6591ZM16.875 14.9091V14.4091H16.375V14.9091H16.875ZM26.7045 14.9091L27.1671 14.7193L27.0398 14.4091H26.7045V14.9091ZM33.4659 31.3864L33.0033 31.5762L33.1306 31.8864H33.4659V31.3864ZM33.8068 31.3864V31.8864H34.1421L34.2694 31.5762L33.8068 31.3864ZM40.5682 14.9091V14.4091H40.2329L40.1056 14.7193L40.5682 14.9091ZM50.3977 14.9091H50.8977V14.4091H50.3977V14.9091ZM50.3977 44V44.5H50.8977V44H50.3977ZM42.6705 44H42.1705V44.5H42.6705V44ZM42.6705 27.1818H43.1705V26.6818H42.6705V27.1818ZM42.4432 27.1818V26.6818H42.1016L41.9774 27L42.4432 27.1818ZM35.9659 43.7727V44.2727H36.3075L36.4317 43.9546L35.9659 43.7727ZM31.3068 43.7727L30.8406 43.9535L30.9644 44.2727H31.3068V43.7727ZM24.8295 27.0682L25.2957 26.8874L25.1719 26.5682H24.8295V27.0682ZM24.6023 27.0682V26.5682H24.1023V27.0682H24.6023ZM24.6023 44V44.5H25.1023V44H24.6023ZM16.875 44H16.375V44.5H16.875V44ZM16.375 14.9091V15.3939H17.375V14.9091H16.375ZM16.375 16.3636V17.3333H17.375V16.3636H16.375ZM16.375 18.303V19.2727H17.375V18.303H16.375ZM16.375 20.2424V21.2121H17.375V20.2424H16.375ZM16.375 22.1818V23.1515H17.375V22.1818H16.375ZM16.375 24.1212V25.0909H17.375V24.1212H16.375ZM16.375 26.0606V27.0303H17.375V26.0606H16.375ZM16.375 28V28.9697H17.375V28H16.375ZM16.375 29.9394V30.9091H17.375V29.9394H16.375ZM16.375 31.8788V32.8485H17.375V31.8788H16.375ZM16.375 33.8182V34.7879H17.375V33.8182H16.375ZM16.375 35.7576V36.7273H17.375V35.7576H16.375ZM16.375 37.697V38.6667H17.375V37.697H16.375ZM16.375 39.6364V40.606H17.375V39.6364H16.375ZM16.375 41.5757V42.5454H17.375V41.5757H16.375ZM16.375 43.5151V44H17.375V43.5151H16.375ZM16.875 44.5H17.358V43.5H16.875V44.5ZM18.3239 44.5H19.2898V43.5H18.3239V44.5ZM20.2557 44.5H21.2216V43.5H20.2557V44.5ZM22.1875 44.5H23.1534V43.5H22.1875V44.5ZM24.1193 44.5H24.6023V43.5H24.1193V44.5ZM25.1023 44V43.4709H24.1023V44H25.1023ZM25.1023 42.4126V41.3544H24.1023V42.4126H25.1023ZM25.1023 40.2962V39.2379H24.1023V40.2962H25.1023ZM25.1023 38.1797V37.1214H24.1023V38.1797H25.1023ZM25.1023 36.0632V35.005H24.1023V36.0632H25.1023ZM25.1023 33.9467V32.8885H24.1023V33.9467H25.1023ZM25.1023 31.8303V30.772H24.1023V31.8303H25.1023ZM25.1023 29.7138V28.6555H24.1023V29.7138H25.1023ZM25.1023 27.5973V27.0682H24.1023V27.5973H25.1023ZM24.6023 27.5682H24.6591V26.5682H24.6023V27.5682ZM24.7727 27.5682H24.8295V26.5682H24.7727V27.5682ZM24.3634 27.2489L24.5433 27.713L25.4757 27.3514L25.2957 26.8874L24.3634 27.2489ZM24.9031 28.641L25.263 29.569L26.1953 29.2075L25.8355 28.2795L24.9031 28.641ZM25.6228 30.4971L25.9827 31.4251L26.915 31.0636L26.5552 30.1355L25.6228 30.4971ZM26.3425 32.3531L26.7024 33.2811L27.6347 32.9196L27.2749 31.9916L26.3425 32.3531ZM27.0622 34.2092L27.4221 35.1372L28.3544 34.7757L27.9946 33.8476L27.0622 34.2092ZM27.7819 36.0652L28.1418 36.9933L29.0741 36.6317L28.7143 35.7037L27.7819 36.0652ZM28.5016 37.9213L28.8615 38.8493L29.7938 38.4878L29.434 37.5598L28.5016 37.9213ZM29.2213 39.7774L29.5812 40.7054L30.5135 40.3439L30.1537 39.4158L29.2213 39.7774ZM29.941 41.6334L30.3009 42.5614L31.2332 42.1999L30.8734 41.2719L29.941 41.6334ZM30.6607 43.4895L30.8406 43.9535L31.773 43.592L31.5931 43.1279L30.6607 43.4895ZM31.3068 44.2727H31.8892V43.2727H31.3068V44.2727ZM33.054 44.2727H34.2188V43.2727H33.054V44.2727ZM35.3835 44.2727H35.9659V43.2727H35.3835V44.2727ZM36.4317 43.9546L36.6116 43.4937L35.6801 43.13L35.5001 43.5909L36.4317 43.9546ZM36.9714 42.572L37.3313 41.6503L36.3998 41.2866L36.0399 42.2083L36.9714 42.572ZM37.6911 40.7286L38.051 39.8068L37.1195 39.4432L36.7596 40.3649L37.6911 40.7286ZM38.4108 38.8851L38.7707 37.9634L37.8392 37.5997L37.4793 38.5214L38.4108 38.8851ZM39.1305 37.0417L39.4904 36.12L38.5589 35.7563L38.199 36.678L39.1305 37.0417ZM39.8502 35.1983L40.2101 34.2765L39.2786 33.9129L38.9187 34.8346L39.8502 35.1983ZM40.5699 33.3548L40.9298 32.4331L39.9983 32.0694L39.6384 32.9911L40.5699 33.3548ZM41.2896 31.5114L41.6495 30.5897L40.718 30.226L40.3581 31.1477L41.2896 31.5114ZM42.0093 29.6679L42.3692 28.7462L41.4376 28.3826L41.0778 29.3043L42.0093 29.6679ZM42.729 27.8245L42.9089 27.3637L41.9774 27L41.7975 27.4608L42.729 27.8245ZM42.4432 27.6818H42.5V26.6818H42.4432V27.6818ZM42.6136 27.6818H42.6705V26.6818H42.6136V27.6818ZM42.1705 27.1818V27.7074H43.1705V27.1818H42.1705ZM42.1705 28.7585V29.8097H43.1705V28.7585H42.1705ZM42.1705 30.8608V31.9119H43.1705V30.8608H42.1705ZM42.1705 32.9631V34.0142H43.1705V32.9631H42.1705ZM42.1705 35.0653V36.1165H43.1705V35.0653H42.1705ZM42.1705 37.1676V38.2187H43.1705V37.1676H42.1705ZM42.1705 39.2699V40.321H43.1705V39.2699H42.1705ZM42.1705 41.3722V42.4233H43.1705V41.3722H42.1705ZM42.1705 43.4744V44H43.1705V43.4744H42.1705ZM42.6705 44.5H43.1534V43.5H42.6705V44.5ZM44.1193 44.5H45.0852V43.5H44.1193V44.5ZM46.0511 44.5H47.017V43.5H46.0511V44.5ZM47.983 44.5H48.9489V43.5H47.983V44.5ZM49.9148 44.5H50.3977V43.5H49.9148V44.5ZM50.8977 44V43.5152H49.8977V44H50.8977ZM50.8977 42.5455V41.5758H49.8977V42.5455H50.8977ZM50.8977 40.6061V39.6364H49.8977V40.6061H50.8977ZM50.8977 38.6667V37.697H49.8977V38.6667H50.8977ZM50.8977 36.7273V35.7576H49.8977V36.7273H50.8977ZM50.8977 34.7879V33.8182H49.8977V34.7879H50.8977ZM50.8977 32.8485V31.8788H49.8977V32.8485H50.8977ZM50.8977 30.9091V29.9394H49.8977V30.9091H50.8977ZM50.8977 28.9697V28H49.8977V28.9697H50.8977ZM50.8977 27.0303V26.0606H49.8977V27.0303H50.8977ZM50.8977 25.0909V24.1212H49.8977V25.0909H50.8977ZM50.8977 23.1515V22.1818H49.8977V23.1515H50.8977ZM50.8977 21.2121V20.2424H49.8977V21.2121H50.8977ZM50.8977 19.2727V18.303H49.8977V19.2727H50.8977ZM50.8977 17.3333V16.3636H49.8977V17.3333H50.8977ZM50.8977 15.394V14.9091H49.8977V15.394H50.8977ZM50.3977 14.4091H49.9063V15.4091H50.3977V14.4091ZM48.9233 14.4091H47.9403V15.4091H48.9233V14.4091ZM46.9574 14.4091H45.9744V15.4091H46.9574V14.4091ZM44.9915 14.4091H44.0085V15.4091H44.9915V14.4091ZM43.0256 14.4091H42.0426V15.4091H43.0256V14.4091ZM41.0597 14.4091H40.5682V15.4091H41.0597V14.4091ZM40.1056 14.7193L39.9178 15.177L40.8429 15.5566L41.0308 15.0989L40.1056 14.7193ZM39.5422 16.0924L39.1665 17.0078L40.0917 17.3874L40.4673 16.472L39.5422 16.0924ZM38.7909 17.9232L38.4153 18.8386L39.3404 19.2182L39.716 18.3028L38.7909 17.9232ZM38.0396 19.754L37.664 20.6694L38.5891 21.049L38.9648 20.1336L38.0396 19.754ZM37.2884 21.5848L36.9127 22.5002L37.8379 22.8798L38.2135 21.9644L37.2884 21.5848ZM36.5371 23.4156L36.1615 24.331L37.0866 24.7106L37.4623 23.7952L36.5371 23.4156ZM35.7859 25.2464L35.4102 26.1618L36.3354 26.5415L36.711 25.626L35.7859 25.2464ZM35.0346 27.0772L34.659 27.9926L35.5841 28.3723L35.9597 27.4569L35.0346 27.0772ZM34.2833 28.908L33.9077 29.8234L34.8328 30.2031L35.2085 29.2877L34.2833 28.908ZM33.5321 30.7388L33.3442 31.1966L34.2694 31.5762L34.4572 31.1185L33.5321 30.7388ZM33.8068 30.8864H33.7216V31.8864H33.8068V30.8864ZM33.5511 30.8864H33.4659V31.8864H33.5511V30.8864ZM33.9285 31.1966L33.7407 30.7388L32.8155 31.1185L33.0033 31.5762L33.9285 31.1966ZM33.365 29.8234L32.9894 28.908L32.0643 29.2877L32.4399 30.2031L33.365 29.8234ZM32.6138 27.9926L32.2381 27.0772L31.313 27.4569L31.6886 28.3723L32.6138 27.9926ZM31.8625 26.1618L31.4869 25.2464L30.5617 25.6261L30.9374 26.5415L31.8625 26.1618ZM31.1112 24.331L30.7356 23.4156L29.8105 23.7952L30.1861 24.7106L31.1112 24.331ZM30.36 22.5002L29.9844 21.5848L29.0592 21.9644L29.4348 22.8798L30.36 22.5002ZM29.6087 20.6694L29.2331 19.754L28.3079 20.1336L28.6836 21.049L29.6087 20.6694ZM28.8575 18.8386L28.4818 17.9232L27.5567 18.3028L27.9323 19.2182L28.8575 18.8386ZM28.1062 17.0078L27.7306 16.0924L26.8054 16.472L27.1811 17.3874L28.1062 17.0078ZM27.3549 15.177L27.1671 14.7193L26.242 15.0989L26.4298 15.5566L27.3549 15.177ZM26.7045 14.4091H26.2131V15.4091H26.7045V14.4091ZM25.2301 14.4091H24.2472V15.4091H25.2301V14.4091ZM23.2642 14.4091H22.2813V15.4091H23.2642V14.4091ZM21.2983 14.4091H20.3153V15.4091H21.2983V14.4091ZM19.3324 14.4091H18.3494V15.4091H19.3324V14.4091ZM17.3665 14.4091H16.875V15.4091H17.3665V14.4091ZM69.6662 44V44.25H69.8519L69.9055 44.0723L69.6662 44ZM61.1435 44L60.9061 43.9216L60.7977 44.25H61.1435V44ZM70.7457 14.9091V14.6591H70.565L70.5083 14.8307L70.7457 14.9091ZM81.5412 14.9091L81.7786 14.8307L81.7219 14.6591H81.5412V14.9091ZM91.1435 44V44.25H91.4893L91.3809 43.9216L91.1435 44ZM82.6207 44L82.3814 44.0723L82.4351 44.25H82.6207V44ZM76.2571 22.9205L76.4964 22.8482L76.4428 22.6705H76.2571V22.9205ZM76.0298 22.9205V22.6705H75.8442L75.7905 22.8482L76.0298 22.9205ZM68.0753 32.5227V32.2727H67.8253V32.5227H68.0753ZM84.098 32.5227H84.348V32.2727H84.098V32.5227ZM84.098 38.4318V38.6818H84.348V38.4318H84.098ZM68.0753 38.4318H67.8253V38.6818H68.0753V38.4318ZM69.6662 43.75H69.1335V44.25H69.6662V43.75ZM68.0682 43.75H67.0028V44.25H68.0682V43.75ZM65.9375 43.75H64.8722V44.25H65.9375V43.75ZM63.8068 43.75H62.7415V44.25H63.8068V43.75ZM61.6761 43.75H61.1435V44.25H61.6761V43.75ZM61.3809 44.0784L61.5409 43.5935L61.0661 43.4368L60.9061 43.9216L61.3809 44.0784ZM61.861 42.6238L62.1811 41.6541L61.7063 41.4974L61.3862 42.4671L61.861 42.6238ZM62.5011 40.6844L62.8212 39.7147L62.3464 39.558L62.0263 40.5277L62.5011 40.6844ZM63.1413 38.745L63.4614 37.7753L62.9866 37.6186L62.6665 38.5883L63.1413 38.745ZM63.7814 36.8056L64.1015 35.8359L63.6267 35.6792L63.3066 36.6489L63.7814 36.8056ZM64.4216 34.8662L64.7417 33.8965L64.2669 33.7398L63.9468 34.7095L64.4216 34.8662ZM65.0617 32.9268L65.3818 31.9572L64.907 31.8004L64.5869 32.7701L65.0617 32.9268ZM65.7019 30.9875L66.022 30.0178L65.5472 29.861L65.2271 30.8307L65.7019 30.9875ZM66.342 29.0481L66.6621 28.0784L66.1873 27.9216L65.8672 28.8913L66.342 29.0481ZM66.9822 27.1087L67.3023 26.139L66.8275 25.9822L66.5074 26.9519L66.9822 27.1087ZM67.6223 25.1693L67.9424 24.1996L67.4676 24.0429L67.1475 25.0125L67.6223 25.1693ZM68.2625 23.2299L68.5826 22.2602L68.1078 22.1035L67.7877 23.0732L68.2625 23.2299ZM68.9026 21.2905L69.2227 20.3208L68.7479 20.1641L68.4278 21.1338L68.9026 21.2905ZM69.5428 19.3511L69.8629 18.3814L69.3881 18.2247L69.068 19.1944L69.5428 19.3511ZM70.1829 17.4117L70.503 16.442L70.0282 16.2853L69.7081 17.255L70.1829 17.4117ZM70.8231 15.4723L70.9831 14.9875L70.5083 14.8307L70.3483 15.3156L70.8231 15.4723ZM70.7457 15.1591H71.2855V14.6591H70.7457V15.1591ZM72.3651 15.1591H73.4446V14.6591H72.3651V15.1591ZM74.5241 15.1591H75.6037V14.6591H74.5241V15.1591ZM76.6832 15.1591H77.7628V14.6591H76.6832V15.1591ZM78.8423 15.1591H79.9219V14.6591H78.8423V15.1591ZM81.0014 15.1591H81.5412V14.6591H81.0014V15.1591ZM81.3038 14.9875L81.4638 15.4723L81.9386 15.3156L81.7786 14.8307L81.3038 14.9875ZM81.7839 16.442L82.104 17.4117L82.5788 17.255L82.2587 16.2853L81.7839 16.442ZM82.4241 18.3814L82.7441 19.3511L83.2189 19.1944L82.8989 18.2247L82.4241 18.3814ZM83.0642 20.3208L83.3843 21.2905L83.8591 21.1338L83.539 20.1641L83.0642 20.3208ZM83.7044 22.2602L84.0244 23.2299L84.4992 23.0732L84.1792 22.1035L83.7044 22.2602ZM84.3445 24.1996L84.6646 25.1693L85.1394 25.0125L84.8193 24.0428L84.3445 24.1996ZM84.9847 26.139L85.3047 27.1087L85.7795 26.9519L85.4595 25.9822L84.9847 26.139ZM85.6248 28.0784L85.9449 29.0481L86.4197 28.8913L86.0996 27.9216L85.6248 28.0784ZM86.265 30.0178L86.585 30.9875L87.0598 30.8307L86.7398 29.861L86.265 30.0178ZM86.9051 31.9571L87.2252 32.9268L87.7 32.7701L87.3799 31.8004L86.9051 31.9571ZM87.5453 33.8965L87.8653 34.8662L88.3401 34.7095L88.0201 33.7398L87.5453 33.8965ZM88.1854 35.8359L88.5055 36.8056L88.9803 36.6489L88.6602 35.6792L88.1854 35.8359ZM88.8256 37.7753L89.1456 38.745L89.6205 38.5883L89.3004 37.6186L88.8256 37.7753ZM89.4657 39.7147L89.7858 40.6844L90.2606 40.5277L89.9405 39.558L89.4657 39.7147ZM90.1059 41.6541L90.426 42.6238L90.9008 42.4671L90.5807 41.4974L90.1059 41.6541ZM90.746 43.5935L90.9061 44.0784L91.3809 43.9216L91.2208 43.4368L90.746 43.5935ZM91.1435 43.75H90.6108V44.25H91.1435V43.75ZM89.5455 43.75H88.4801V44.25H89.5455V43.75ZM87.4148 43.75H86.3494V44.25H87.4148V43.75ZM85.2841 43.75H84.2188V44.25H85.2841V43.75ZM83.1534 43.75H82.6207V44.25H83.1534V43.75ZM82.8601 43.9277L82.7154 43.4487L82.2368 43.5932L82.3814 44.0723L82.8601 43.9277ZM82.4262 42.4905L82.1369 41.5323L81.6583 41.6768L81.9475 42.635L82.4262 42.4905ZM81.8477 40.5742L81.5584 39.616L81.0798 39.7605L81.369 40.7187L81.8477 40.5742ZM81.2692 38.6579L80.9799 37.6997L80.5012 37.8442L80.7905 38.8024L81.2692 38.6579ZM80.6906 36.7415L80.4014 35.7834L79.9227 35.9279L80.212 36.886L80.6906 36.7415ZM80.1121 34.8252L79.8229 33.8671L79.3442 34.0116L79.6335 34.9697L80.1121 34.8252ZM79.5336 32.9089L79.2444 31.9507L78.7657 32.0952L79.055 33.0534L79.5336 32.9089ZM78.9551 30.9926L78.6659 30.0344L78.1872 30.1789L78.4764 31.1371L78.9551 30.9926ZM78.3766 29.0763L78.0873 28.1181L77.6087 28.2626L77.8979 29.2208L78.3766 29.0763ZM77.7981 27.1599L77.5088 26.2018L77.0302 26.3463L77.3194 27.3044L77.7981 27.1599ZM77.2196 25.2436L76.9303 24.2854L76.4517 24.43L76.7409 25.3881L77.2196 25.2436ZM76.6411 23.3273L76.4964 22.8482L76.0178 22.9927L76.1624 23.4718L76.6411 23.3273ZM76.2571 22.6705H76.2003V23.1705H76.2571V22.6705ZM76.0866 22.6705H76.0298V23.1705H76.0866V22.6705ZM75.7905 22.8482L75.6459 23.3273L76.1245 23.4718L76.2692 22.9927L75.7905 22.8482ZM75.3566 24.2854L75.0674 25.2436L75.546 25.3881L75.8353 24.4299L75.3566 24.2854ZM74.7781 26.2018L74.4888 27.1599L74.9675 27.3044L75.2568 26.3463L74.7781 26.2018ZM74.1996 28.1181L73.9103 29.0763L74.389 29.2208L74.6783 28.2626L74.1996 28.1181ZM73.6211 30.0344L73.3318 30.9926L73.8105 31.1371L74.0997 30.1789L73.6211 30.0344ZM73.0426 31.9507L72.7533 32.9089L73.232 33.0534L73.5212 32.0952L73.0426 31.9507ZM72.4641 33.8671L72.1748 34.8252L72.6535 34.9697L72.9427 34.0116L72.4641 33.8671ZM71.8855 35.7834L71.5963 36.7415L72.0749 36.886L72.3642 35.9279L71.8855 35.7834ZM71.307 37.6997L71.0178 38.6579L71.4964 38.8024L71.7857 37.8442L71.307 37.6997ZM70.7285 39.616L70.4393 40.5742L70.9179 40.7187L71.2072 39.7605L70.7285 39.616ZM70.15 41.5323L69.8607 42.4905L70.3394 42.635L70.6287 41.6768L70.15 41.5323ZM69.5715 43.4487L69.4269 43.9277L69.9055 44.0723L70.0502 43.5932L69.5715 43.4487ZM67.8253 32.5227V33.0152H68.3253V32.5227H67.8253ZM67.8253 34V34.9848H68.3253V34H67.8253ZM67.8253 35.9697V36.9545H68.3253V35.9697H67.8253ZM67.8253 37.9394V38.4318H68.3253V37.9394H67.8253ZM68.0753 38.6818H68.576V38.1818H68.0753V38.6818ZM69.5774 38.6818H70.5788V38.1818H69.5774V38.6818ZM71.5803 38.6818H72.5817V38.1818H71.5803V38.6818ZM73.5831 38.6818H74.5845V38.1818H73.5831V38.6818ZM75.5859 38.6818H76.5874V38.1818H75.5859V38.6818ZM77.5888 38.6818H78.5902V38.1818H77.5888V38.6818ZM79.5916 38.6818H80.593V38.1818H79.5916V38.6818ZM81.5945 38.6818H82.5959V38.1818H81.5945V38.6818ZM83.5973 38.6818H84.098V38.1818H83.5973V38.6818ZM84.348 38.4318V37.9394H83.848V38.4318H84.348ZM84.348 36.9545V35.9697H83.848V36.9545H84.348ZM84.348 34.9848V34H83.848V34.9848H84.348ZM84.348 33.0152V32.5227H83.848V33.0152H84.348ZM84.098 32.2727H83.5973V32.7727H84.098V32.2727ZM82.5959 32.2727H81.5945V32.7727H82.5959V32.2727ZM80.593 32.2727H79.5916V32.7727H80.593V32.2727ZM78.5902 32.2727H77.5888V32.7727H78.5902V32.2727ZM76.5874 32.2727H75.5859V32.7727H76.5874V32.2727ZM74.5845 32.2727H73.5831V32.7727H74.5845V32.2727ZM72.5817 32.2727H71.5803V32.7727H72.5817V32.2727ZM70.5788 32.2727H69.5774V32.7727H70.5788V32.2727ZM68.576 32.2727H68.0753V32.7727H68.576V32.2727ZM69.6662 44V44.5H70.0375L70.1449 44.1445L69.6662 44ZM61.1435 44L60.6687 43.8433L60.4519 44.5H61.1435V44ZM70.7457 14.9091V14.4091H70.3842L70.2709 14.7524L70.7457 14.9091ZM81.5412 14.9091L82.016 14.7524L81.9027 14.4091H81.5412V14.9091ZM91.1435 44V44.5H91.835L91.6183 43.8433L91.1435 44ZM82.6207 44L82.1421 44.1445L82.2494 44.5H82.6207V44ZM76.2571 22.9205L76.7358 22.776L76.6284 22.4205H76.2571V22.9205ZM76.0298 22.9205V22.4205H75.6585L75.5512 22.776L76.0298 22.9205ZM68.0753 32.5227V32.0227H67.5753V32.5227H68.0753ZM84.098 32.5227H84.598V32.0227H84.098V32.5227ZM84.098 38.4318V38.9318H84.598V38.4318H84.098ZM68.0753 38.4318H67.5753V38.9318H68.0753V38.4318ZM69.6662 43.5H69.1335V44.5H69.6662V43.5ZM68.0682 43.5H67.0028V44.5H68.0682V43.5ZM65.9375 43.5H64.8722V44.5H65.9375V43.5ZM63.8068 43.5H62.7415V44.5H63.8068V43.5ZM61.6761 43.5H61.1435V44.5H61.6761V43.5ZM61.6183 44.1567L61.7783 43.6719L60.8287 43.3584L60.6687 43.8433L61.6183 44.1567ZM62.0984 42.7022L62.4185 41.7325L61.4689 41.419L61.1488 42.3887L62.0984 42.7022ZM62.7385 40.7628L63.0586 39.7931L62.109 39.4796L61.7889 40.4493L62.7385 40.7628ZM63.3787 38.8234L63.6988 37.8537L62.7492 37.5402L62.4291 38.5099L63.3787 38.8234ZM64.0188 36.884L64.3389 35.9143L63.3893 35.6009L63.0692 36.5706L64.0188 36.884ZM64.659 34.9446L64.9791 33.9749L64.0295 33.6615L63.7094 34.6312L64.659 34.9446ZM65.2991 33.0052L65.6192 32.0355L64.6696 31.7221L64.3495 32.6918L65.2991 33.0052ZM65.9393 31.0658L66.2594 30.0961L65.3098 29.7827L64.9897 30.7524L65.9393 31.0658ZM66.5794 29.1264L66.8995 28.1567L65.9499 27.8433L65.6298 28.813L66.5794 29.1264ZM67.2196 27.187L67.5397 26.2173L66.5901 25.9039L66.27 26.8736L67.2196 27.187ZM67.8597 25.2476L68.1798 24.2779L67.2302 23.9645L66.9101 24.9342L67.8597 25.2476ZM68.4999 23.3082L68.82 22.3385L67.8704 22.0251L67.5503 22.9948L68.4999 23.3082ZM69.14 21.3688L69.4601 20.3991L68.5105 20.0857L68.1904 21.0554L69.14 21.3688ZM69.7802 19.4295L70.1003 18.4598L69.1507 18.1463L68.8306 19.116L69.7802 19.4295ZM70.4204 17.4901L70.7404 16.5204L69.7908 16.2069L69.4707 17.1766L70.4204 17.4901ZM71.0605 15.5507L71.2205 15.0658L70.2709 14.7524L70.1109 15.2372L71.0605 15.5507ZM70.7457 15.4091H71.2855V14.4091H70.7457V15.4091ZM72.3651 15.4091H73.4446V14.4091H72.3651V15.4091ZM74.5241 15.4091H75.6037V14.4091H74.5241V15.4091ZM76.6832 15.4091H77.7628V14.4091H76.6832V15.4091ZM78.8423 15.4091H79.9219V14.4091H78.8423V15.4091ZM81.0014 15.4091H81.5412V14.4091H81.0014V15.4091ZM81.0664 15.0658L81.2264 15.5507L82.176 15.2372L82.016 14.7524L81.0664 15.0658ZM81.5465 16.5204L81.8666 17.4901L82.8162 17.1766L82.4961 16.2069L81.5465 16.5204ZM82.1867 18.4598L82.5067 19.4294L83.4563 19.116L83.1363 18.1463L82.1867 18.4598ZM82.8268 20.3991L83.1469 21.3688L84.0965 21.0554L83.7764 20.0857L82.8268 20.3991ZM83.467 22.3385L83.787 23.3082L84.7366 22.9948L84.4166 22.0251L83.467 22.3385ZM84.1071 24.2779L84.4272 25.2476L85.3768 24.9342L85.0567 23.9645L84.1071 24.2779ZM84.7473 26.2173L85.0673 27.187L86.0169 26.8736L85.6969 25.9039L84.7473 26.2173ZM85.3874 28.1567L85.7075 29.1264L86.6571 28.813L86.337 27.8433L85.3874 28.1567ZM86.0276 30.0961L86.3476 31.0658L87.2972 30.7524L86.9772 29.7827L86.0276 30.0961ZM86.6677 32.0355L86.9878 33.0052L87.9374 32.6918L87.6173 31.7221L86.6677 32.0355ZM87.3079 33.9749L87.6279 34.9446L88.5775 34.6312L88.2575 33.6615L87.3079 33.9749ZM87.948 35.9143L88.2681 36.884L89.2177 36.5705L88.8976 35.6009L87.948 35.9143ZM88.5882 37.8537L88.9082 38.8234L89.8579 38.5099L89.5378 37.5402L88.5882 37.8537ZM89.2283 39.7931L89.5484 40.7628L90.498 40.4493L90.1779 39.4796L89.2283 39.7931ZM89.8685 41.7325L90.1885 42.7022L91.1382 42.3887L90.8181 41.419L89.8685 41.7325ZM90.5086 43.6719L90.6687 44.1567L91.6183 43.8433L91.4582 43.3584L90.5086 43.6719ZM91.1435 43.5H90.6108V44.5H91.1435V43.5ZM89.5455 43.5H88.4801V44.5H89.5455V43.5ZM87.4148 43.5H86.3494V44.5H87.4148V43.5ZM85.2841 43.5H84.2188V44.5H85.2841V43.5ZM83.1534 43.5H82.6207V44.5H83.1534V43.5ZM83.0994 43.8555L82.9548 43.3764L81.9974 43.6654L82.1421 44.1445L83.0994 43.8555ZM82.6655 42.4183L82.3763 41.4601L81.4189 41.7491L81.7082 42.7073L82.6655 42.4183ZM82.087 40.5019L81.7978 39.5438L80.8404 39.8328L81.1297 40.7909L82.087 40.5019ZM81.5085 38.5856L81.2192 37.6274L80.2619 37.9165L80.5512 38.8746L81.5085 38.5856ZM80.93 36.6693L80.6407 35.7111L79.6834 36.0001L79.9727 36.9583L80.93 36.6693ZM80.3515 34.753L80.0622 33.7948L79.1049 34.0838L79.3941 35.042L80.3515 34.753ZM79.773 32.8366L79.4837 31.8785L78.5264 32.1675L78.8156 33.1256L79.773 32.8366ZM79.1944 30.9203L78.9052 29.9622L77.9479 30.2512L78.2371 31.2093L79.1944 30.9203ZM78.6159 29.004L78.3267 28.0458L77.3693 28.3348L77.6586 29.293L78.6159 29.004ZM78.0374 27.0877L77.7482 26.1295L76.7908 26.4185L77.0801 27.3767L78.0374 27.0877ZM77.4589 25.1714L77.1697 24.2132L76.2123 24.5022L76.5016 25.4604L77.4589 25.1714ZM76.8804 23.255L76.7358 22.776L75.7784 23.065L75.9231 23.544L76.8804 23.255ZM76.2571 22.4205H76.2003V23.4205H76.2571V22.4205ZM76.0866 22.4205H76.0298V23.4205H76.0866V22.4205ZM75.5512 22.776L75.4065 23.255L76.3639 23.544L76.5085 23.065L75.5512 22.776ZM75.1173 24.2132L74.828 25.1714L75.7854 25.4604L76.0746 24.5022L75.1173 24.2132ZM74.5388 26.1295L74.2495 27.0877L75.2068 27.3767L75.4961 26.4185L74.5388 26.1295ZM73.9603 28.0458L73.671 29.004L74.6283 29.293L74.9176 28.3348L73.9603 28.0458ZM73.3817 29.9622L73.0925 30.9203L74.0498 31.2093L74.3391 30.2512L73.3817 29.9622ZM72.8032 31.8785L72.514 32.8366L73.4713 33.1256L73.7606 32.1675L72.8032 31.8785ZM72.2247 33.7948L71.9355 34.753L72.8928 35.042L73.182 34.0838L72.2247 33.7948ZM71.6462 35.7111L71.357 36.6693L72.3143 36.9583L72.6035 36.0001L71.6462 35.7111ZM71.0677 37.6275L70.7784 38.5856L71.7358 38.8746L72.025 37.9165L71.0677 37.6275ZM70.4892 39.5438L70.1999 40.5019L71.1573 40.7909L71.4465 39.8328L70.4892 39.5438ZM69.9107 41.4601L69.6214 42.4183L70.5787 42.7073L70.868 41.7491L69.9107 41.4601ZM69.3322 43.3764L69.1875 43.8555L70.1449 44.1445L70.2895 43.6654L69.3322 43.3764ZM67.5753 32.5227V33.0152H68.5753V32.5227H67.5753ZM67.5753 34V34.9848H68.5753V34H67.5753ZM67.5753 35.9697V36.9545H68.5753V35.9697H67.5753ZM67.5753 37.9394V38.4318H68.5753V37.9394H67.5753ZM68.0753 38.9318H68.576V37.9318H68.0753V38.9318ZM69.5774 38.9318H70.5788V37.9318H69.5774V38.9318ZM71.5803 38.9318H72.5817V37.9318H71.5803V38.9318ZM73.5831 38.9318H74.5845V37.9318H73.5831V38.9318ZM75.5859 38.9318H76.5874V37.9318H75.5859V38.9318ZM77.5888 38.9318H78.5902V37.9318H77.5888V38.9318ZM79.5916 38.9318H80.593V37.9318H79.5916V38.9318ZM81.5945 38.9318H82.5959V37.9318H81.5945V38.9318ZM83.5973 38.9318H84.098V37.9318H83.5973V38.9318ZM84.598 38.4318V37.9394H83.598V38.4318H84.598ZM84.598 36.9545V35.9697H83.598V36.9545H84.598ZM84.598 34.9848V34H83.598V34.9848H84.598ZM84.598 33.0152V32.5227H83.598V33.0152H84.598ZM84.098 32.0227H83.5973V33.0227H84.098V32.0227ZM82.5959 32.0227H81.5945V33.0227H82.5959V32.0227ZM80.593 32.0227H79.5916V33.0227H80.593V32.0227ZM78.5902 32.0227H77.5888V33.0227H78.5902V32.0227ZM76.5874 32.0227H75.5859V33.0227H76.5874V32.0227ZM74.5845 32.0227H73.5831V33.0227H74.5845V32.0227ZM72.5817 32.0227H71.5803V33.0227H72.5817V32.0227ZM70.5788 32.0227H69.5774V33.0227H70.5788V32.0227ZM68.576 32.0227H68.0753V33.0227H68.576V32.0227ZM101.914 44H101.664V44.25H101.914V44ZM101.914 14.9091V14.6591H101.664V14.9091H101.914ZM122.369 14.9091H122.619V14.6591H122.369V14.9091ZM122.369 21.2727V21.5227H122.619V21.2727H122.369ZM109.812 21.2727V21.0227H109.562V21.2727H109.812ZM109.812 26.2727H109.562V26.5227H109.812V26.2727ZM121.119 26.2727H121.369V26.0227H121.119V26.2727ZM121.119 32.6364V32.8864H121.369V32.6364H121.119ZM109.812 32.6364V32.3864H109.562V32.6364H109.812ZM109.812 44V44.25H110.062V44H109.812ZM102.164 44V43.5152H101.664V44H102.164ZM102.164 42.5455V41.5758H101.664V42.5455H102.164ZM102.164 40.6061V39.6364H101.664V40.6061H102.164ZM102.164 38.6667V37.697H101.664V38.6667H102.164ZM102.164 36.7273V35.7576H101.664V36.7273H102.164ZM102.164 34.7879V33.8182H101.664V34.7879H102.164ZM102.164 32.8485V31.8788H101.664V32.8485H102.164ZM102.164 30.9091V29.9394H101.664V30.9091H102.164ZM102.164 28.9697V28H101.664V28.9697H102.164ZM102.164 27.0303V26.0606H101.664V27.0303H102.164ZM102.164 25.0909V24.1212H101.664V25.0909H102.164ZM102.164 23.1515V22.1818H101.664V23.1515H102.164ZM102.164 21.2121V20.2424H101.664V21.2121H102.164ZM102.164 19.2727V18.303H101.664V19.2727H102.164ZM102.164 17.3333V16.3636H101.664V17.3333H102.164ZM102.164 15.394V14.9091H101.664V15.394H102.164ZM101.914 15.1591H102.425V14.6591H101.914V15.1591ZM103.448 15.1591H104.471V14.6591H103.448V15.1591ZM105.494 15.1591H106.516V14.6591H105.494V15.1591ZM107.539 15.1591H108.562V14.6591H107.539V15.1591ZM109.585 15.1591H110.607V14.6591H109.585V15.1591ZM111.63 15.1591H112.653V14.6591H111.63V15.1591ZM113.675 15.1591H114.698V14.6591H113.675V15.1591ZM115.721 15.1591H116.744V14.6591H115.721V15.1591ZM117.766 15.1591H118.789V14.6591H117.766V15.1591ZM119.812 15.1591H120.835V14.6591H119.812V15.1591ZM121.857 15.1591H122.369V14.6591H121.857V15.1591ZM122.119 14.9091V15.4394H122.619V14.9091H122.119ZM122.119 16.5V17.5606H122.619V16.5H122.119ZM122.119 18.6212V19.6818H122.619V18.6212H122.119ZM122.119 20.7424V21.2727H122.619V20.7424H122.119ZM122.369 21.0227H121.845V21.5227H122.369V21.0227ZM120.799 21.0227H119.753V21.5227H120.799V21.0227ZM118.706 21.0227H117.66V21.5227H118.706V21.0227ZM116.613 21.0227H115.567V21.5227H116.613V21.0227ZM114.521 21.0227H113.474V21.5227H114.521V21.0227ZM112.428 21.0227H111.381V21.5227H112.428V21.0227ZM110.335 21.0227H109.812V21.5227H110.335V21.0227ZM109.562 21.2727V21.8977H110.062V21.2727H109.562ZM109.562 23.1477V24.3977H110.062V23.1477H109.562ZM109.562 25.6477V26.2727H110.062V25.6477H109.562ZM109.812 26.5227H110.283V26.0227H109.812V26.5227ZM111.225 26.5227H112.167V26.0227H111.225V26.5227ZM113.11 26.5227H114.052V26.0227H113.11V26.5227ZM114.994 26.5227H115.936V26.0227H114.994V26.5227ZM116.879 26.5227H117.821V26.0227H116.879V26.5227ZM118.763 26.5227H119.705V26.0227H118.763V26.5227ZM120.647 26.5227H121.119V26.0227H120.647V26.5227ZM120.869 26.2727V26.803H121.369V26.2727H120.869ZM120.869 27.8636V28.9242H121.369V27.8636H120.869ZM120.869 29.9848V31.0455H121.369V29.9848H120.869ZM120.869 32.1061V32.6364H121.369V32.1061H120.869ZM121.119 32.3864H120.647V32.8864H121.119V32.3864ZM119.705 32.3864H118.763V32.8864H119.705V32.3864ZM117.821 32.3864H116.879V32.8864H117.821V32.3864ZM115.936 32.3864H114.994V32.8864H115.936V32.3864ZM114.052 32.3864H113.11V32.8864H114.052V32.3864ZM112.167 32.3864H111.225V32.8864H112.167V32.3864ZM110.283 32.3864H109.812V32.8864H110.283V32.3864ZM109.562 32.6364V33.1098H110.062V32.6364H109.562ZM109.562 34.0568V35.0038H110.062V34.0568H109.562ZM109.562 35.9508V36.8977H110.062V35.9508H109.562ZM109.562 37.8447V38.7917H110.062V37.8447H109.562ZM109.562 39.7386V40.6856H110.062V39.7386H109.562ZM109.562 41.6326V42.5795H110.062V41.6326H109.562ZM109.562 43.5265V44H110.062V43.5265H109.562ZM109.812 43.75H109.318V44.25H109.812V43.75ZM108.331 43.75H107.344V44.25H108.331V43.75ZM106.357 43.75H105.369V44.25H106.357V43.75ZM104.382 43.75H103.395V44.25H104.382V43.75ZM102.408 43.75H101.914V44.25H102.408V43.75ZM101.914 44H101.414V44.5H101.914V44ZM101.914 14.9091V14.4091H101.414V14.9091H101.914ZM122.369 14.9091H122.869V14.4091H122.369V14.9091ZM122.369 21.2727V21.7727H122.869V21.2727H122.369ZM109.812 21.2727V20.7727H109.312V21.2727H109.812ZM109.812 26.2727H109.312V26.7727H109.812V26.2727ZM121.119 26.2727H121.619V25.7727H121.119V26.2727ZM121.119 32.6364V33.1364H121.619V32.6364H121.119ZM109.812 32.6364V32.1364H109.312V32.6364H109.812ZM109.812 44V44.5H110.312V44H109.812ZM102.414 44V43.5152H101.414V44H102.414ZM102.414 42.5455V41.5758H101.414V42.5455H102.414ZM102.414 40.6061V39.6364H101.414V40.6061H102.414ZM102.414 38.6667V37.697H101.414V38.6667H102.414ZM102.414 36.7273V35.7576H101.414V36.7273H102.414ZM102.414 34.7879V33.8182H101.414V34.7879H102.414ZM102.414 32.8485V31.8788H101.414V32.8485H102.414ZM102.414 30.9091V29.9394H101.414V30.9091H102.414ZM102.414 28.9697V28H101.414V28.9697H102.414ZM102.414 27.0303V26.0606H101.414V27.0303H102.414ZM102.414 25.0909V24.1212H101.414V25.0909H102.414ZM102.414 23.1515V22.1818H101.414V23.1515H102.414ZM102.414 21.2121V20.2424H101.414V21.2121H102.414ZM102.414 19.2727V18.303H101.414V19.2727H102.414ZM102.414 17.3333V16.3636H101.414V17.3333H102.414ZM102.414 15.394V14.9091H101.414V15.394H102.414ZM101.914 15.4091H102.425V14.4091H101.914V15.4091ZM103.448 15.4091H104.471V14.4091H103.448V15.4091ZM105.494 15.4091H106.516V14.4091H105.494V15.4091ZM107.539 15.4091H108.562V14.4091H107.539V15.4091ZM109.585 15.4091H110.607V14.4091H109.585V15.4091ZM111.63 15.4091H112.653V14.4091H111.63V15.4091ZM113.675 15.4091H114.698V14.4091H113.675V15.4091ZM115.721 15.4091H116.744V14.4091H115.721V15.4091ZM117.766 15.4091H118.789V14.4091H117.766V15.4091ZM119.812 15.4091H120.835V14.4091H119.812V15.4091ZM121.857 15.4091H122.369V14.4091H121.857V15.4091ZM121.869 14.9091V15.4394H122.869V14.9091H121.869ZM121.869 16.5V17.5606H122.869V16.5H121.869ZM121.869 18.6212V19.6818H122.869V18.6212H121.869ZM121.869 20.7424V21.2727H122.869V20.7424H121.869ZM122.369 20.7727H121.845V21.7727H122.369V20.7727ZM120.799 20.7727H119.753V21.7727H120.799V20.7727ZM118.706 20.7727H117.66V21.7727H118.706V20.7727ZM116.613 20.7727H115.567V21.7727H116.613V20.7727ZM114.521 20.7727H113.474V21.7727H114.521V20.7727ZM112.428 20.7727H111.381V21.7727H112.428V20.7727ZM110.335 20.7727H109.812V21.7727H110.335V20.7727ZM109.312 21.2727V21.8977H110.312V21.2727H109.312ZM109.312 23.1477V24.3977H110.312V23.1477H109.312ZM109.312 25.6477V26.2727H110.312V25.6477H109.312ZM109.812 26.7727H110.283V25.7727H109.812V26.7727ZM111.225 26.7727H112.167V25.7727H111.225V26.7727ZM113.11 26.7727H114.052V25.7727H113.11V26.7727ZM114.994 26.7727H115.936V25.7727H114.994V26.7727ZM116.879 26.7727H117.821V25.7727H116.879V26.7727ZM118.763 26.7727H119.705V25.7727H118.763V26.7727ZM120.647 26.7727H121.119V25.7727H120.647V26.7727ZM120.619 26.2727V26.803H121.619V26.2727H120.619ZM120.619 27.8636V28.9242H121.619V27.8636H120.619ZM120.619 29.9848V31.0455H121.619V29.9848H120.619ZM120.619 32.1061V32.6364H121.619V32.1061H120.619ZM121.119 32.1364H120.647V33.1364H121.119V32.1364ZM119.705 32.1364H118.763V33.1364H119.705V32.1364ZM117.821 32.1364H116.879V33.1364H117.821V32.1364ZM115.936 32.1364H114.994V33.1364H115.936V32.1364ZM114.052 32.1364H113.11V33.1364H114.052V32.1364ZM112.167 32.1364H111.225V33.1364H112.167V32.1364ZM110.283 32.1364H109.812V33.1364H110.283V32.1364ZM109.312 32.6364V33.1098H110.312V32.6364H109.312ZM109.312 34.0568V35.0038H110.312V34.0568H109.312ZM109.312 35.9508V36.8977H110.312V35.9508H109.312ZM109.312 37.8447V38.7917H110.312V37.8447H109.312ZM109.312 39.7386V40.6856H110.312V39.7386H109.312ZM109.312 41.6326V42.5795H110.312V41.6326H109.312ZM109.312 43.5265V44H110.312V43.5265H109.312ZM109.812 43.5H109.318V44.5H109.812V43.5ZM108.331 43.5H107.344V44.5H108.331V43.5ZM106.357 43.5H105.369V44.5H106.357V43.5ZM104.382 43.5H103.395V44.5H104.382V43.5ZM102.408 43.5H101.914V44.5H102.408V43.5ZM141.14 14.9091H141.39V14.6591H141.14V14.9091ZM141.14 44V44.25H141.39V44H141.14ZM133.242 44H132.992V44.25H133.242V44ZM133.242 14.9091V14.6591H132.992V14.9091H133.242ZM141.14 14.6591H140.646V15.1591H141.14V14.6591ZM139.659 14.6591H138.672V15.1591H139.659V14.6591ZM137.685 14.6591H136.697V15.1591H137.685V14.6591ZM135.71 14.6591H134.723V15.1591H135.71V14.6591ZM133.736 14.6591H133.242V15.1591H133.736V14.6591ZM132.992 14.9091V15.3939H133.492V14.9091H132.992ZM132.992 16.3636V17.3333H133.492V16.3636H132.992ZM132.992 18.303V19.2727H133.492V18.303H132.992ZM132.992 20.2424V21.2121H133.492V20.2424H132.992ZM132.992 22.1818V23.1515H133.492V22.1818H132.992ZM132.992 24.1212V25.0909H133.492V24.1212H132.992ZM132.992 26.0606V27.0303H133.492V26.0606H132.992ZM132.992 28V28.9697H133.492V28H132.992ZM132.992 29.9394V30.9091H133.492V29.9394H132.992ZM132.992 31.8788V32.8485H133.492V31.8788H132.992ZM132.992 33.8182V34.7879H133.492V33.8182H132.992ZM132.992 35.7576V36.7273H133.492V35.7576H132.992ZM132.992 37.697V38.6667H133.492V37.697H132.992ZM132.992 39.6364V40.606H133.492V39.6364H132.992ZM132.992 41.5757V42.5454H133.492V41.5757H132.992ZM132.992 43.5151V44H133.492V43.5151H132.992ZM133.242 44.25H133.736V43.75H133.242V44.25ZM134.723 44.25H135.71V43.75H134.723V44.25ZM136.697 44.25H137.685V43.75H136.697V44.25ZM138.672 44.25H139.659V43.75H138.672V44.25ZM140.646 44.25H141.14V43.75H140.646V44.25ZM141.39 44V43.5152H140.89V44H141.39ZM141.39 42.5455V41.5758H140.89V42.5455H141.39ZM141.39 40.6061V39.6364H140.89V40.6061H141.39ZM141.39 38.6667V37.697H140.89V38.6667H141.39ZM141.39 36.7273V35.7576H140.89V36.7273H141.39ZM141.39 34.7879V33.8182H140.89V34.7879H141.39ZM141.39 32.8485V31.8788H140.89V32.8485H141.39ZM141.39 30.9091V29.9394H140.89V30.9091H141.39ZM141.39 28.9697V28H140.89V28.9697H141.39ZM141.39 27.0303V26.0606H140.89V27.0303H141.39ZM141.39 25.0909V24.1212H140.89V25.0909H141.39ZM141.39 23.1515V22.1818H140.89V23.1515H141.39ZM141.39 21.2121V20.2424H140.89V21.2121H141.39ZM141.39 19.2727V18.303H140.89V19.2727H141.39ZM141.39 17.3333V16.3636H140.89V17.3333H141.39ZM141.39 15.394V14.9091H140.89V15.394H141.39ZM141.14 14.9091H141.64V14.4091H141.14V14.9091ZM141.14 44V44.5H141.64V44H141.14ZM133.242 44H132.742V44.5H133.242V44ZM133.242 14.9091V14.4091H132.742V14.9091H133.242ZM141.14 14.4091H140.646V15.4091H141.14V14.4091ZM139.659 14.4091H138.672V15.4091H139.659V14.4091ZM137.685 14.4091H136.697V15.4091H137.685V14.4091ZM135.71 14.4091H134.723V15.4091H135.71V14.4091ZM133.736 14.4091H133.242V15.4091H133.736V14.4091ZM132.742 14.9091V15.3939H133.742V14.9091H132.742ZM132.742 16.3636V17.3333H133.742V16.3636H132.742ZM132.742 18.303V19.2727H133.742V18.303H132.742ZM132.742 20.2424V21.2121H133.742V20.2424H132.742ZM132.742 22.1818V23.1515H133.742V22.1818H132.742ZM132.742 24.1212V25.0909H133.742V24.1212H132.742ZM132.742 26.0606V27.0303H133.742V26.0606H132.742ZM132.742 28V28.9697H133.742V28H132.742ZM132.742 29.9394V30.9091H133.742V29.9394H132.742ZM132.742 31.8788V32.8485H133.742V31.8788H132.742ZM132.742 33.8182V34.7879H133.742V33.8182H132.742ZM132.742 35.7576V36.7273H133.742V35.7576H132.742ZM132.742 37.697V38.6667H133.742V37.697H132.742ZM132.742 39.6364V40.606H133.742V39.6364H132.742ZM132.742 41.5757V42.5454H133.742V41.5757H132.742ZM132.742 43.5151V44H133.742V43.5151H132.742ZM133.242 44.5H133.736V43.5H133.242V44.5ZM134.723 44.5H135.71V43.5H134.723V44.5ZM136.697 44.5H137.685V43.5H136.697V44.5ZM138.672 44.5H139.659V43.5H138.672V44.5ZM140.646 44.5H141.14V43.5H140.646V44.5ZM141.64 44V43.5152H140.64V44H141.64ZM141.64 42.5455V41.5758H140.64V42.5455H141.64ZM141.64 40.6061V39.6364H140.64V40.6061H141.64ZM141.64 38.6667V37.697H140.64V38.6667H141.64ZM141.64 36.7273V35.7576H140.64V36.7273H141.64ZM141.64 34.7879V33.8182H140.64V34.7879H141.64ZM141.64 32.8485V31.8788H140.64V32.8485H141.64ZM141.64 30.9091V29.9394H140.64V30.9091H141.64ZM141.64 28.9697V28H140.64V28.9697H141.64ZM141.64 27.0303V26.0606H140.64V27.0303H141.64ZM141.64 25.0909V24.1212H140.64V25.0909H141.64ZM141.64 23.1515V22.1818H140.64V23.1515H141.64ZM141.64 21.2121V20.2424H140.64V21.2121H141.64ZM141.64 19.2727V18.303H140.64V19.2727H141.64ZM141.64 17.3333V16.3636H140.64V17.3333H141.64ZM141.64 15.394V14.9091H140.64V15.394H141.64ZM160.408 44V44.25H160.594L160.648 44.0723L160.408 44ZM151.886 44L151.648 43.9216L151.54 44.25H151.886V44ZM161.488 14.9091V14.6591H161.307L161.251 14.8307L161.488 14.9091ZM172.283 14.9091L172.521 14.8307L172.464 14.6591H172.283V14.9091ZM181.886 44V44.25H182.231L182.123 43.9216L181.886 44ZM173.363 44L173.124 44.0723L173.177 44.25H173.363V44ZM166.999 22.9205L167.239 22.8482L167.185 22.6705H166.999V22.9205ZM166.772 22.9205V22.6705H166.586L166.533 22.8482L166.772 22.9205ZM158.817 32.5227V32.2727H158.567V32.5227H158.817ZM174.84 32.5227H175.09V32.2727H174.84V32.5227ZM174.84 38.4318V38.6818H175.09V38.4318H174.84ZM158.817 38.4318H158.567V38.6818H158.817V38.4318ZM160.408 43.75H159.876V44.25H160.408V43.75ZM158.81 43.75H157.745V44.25H158.81V43.75ZM156.68 43.75H155.614V44.25H156.68V43.75ZM154.549 43.75H153.484V44.25H154.549V43.75ZM152.418 43.75H151.886V44.25H152.418V43.75ZM152.123 44.0784L152.283 43.5935L151.808 43.4368L151.648 43.9216L152.123 44.0784ZM152.603 42.6238L152.923 41.6541L152.448 41.4974L152.128 42.4671L152.603 42.6238ZM153.243 40.6844L153.563 39.7147L153.089 39.558L152.769 40.5277L153.243 40.6844ZM153.883 38.745L154.204 37.7753L153.729 37.6186L153.409 38.5883L153.883 38.745ZM154.524 36.8056L154.844 35.8359L154.369 35.6792L154.049 36.6489L154.524 36.8056ZM155.164 34.8662L155.484 33.8965L155.009 33.7398L154.689 34.7095L155.164 34.8662ZM155.804 32.9268L156.124 31.9572L155.649 31.8004L155.329 32.7701L155.804 32.9268ZM156.444 30.9875L156.764 30.0178L156.289 29.861L155.969 30.8307L156.444 30.9875ZM157.084 29.0481L157.404 28.0784L156.93 27.9216L156.609 28.8913L157.084 29.0481ZM157.724 27.1087L158.044 26.139L157.57 25.9822L157.25 26.9519L157.724 27.1087ZM158.365 25.1693L158.685 24.1996L158.21 24.0429L157.89 25.0125L158.365 25.1693ZM159.005 23.2299L159.325 22.2602L158.85 22.1035L158.53 23.0732L159.005 23.2299ZM159.645 21.2905L159.965 20.3208L159.49 20.1641L159.17 21.1338L159.645 21.2905ZM160.285 19.3511L160.605 18.3814L160.13 18.2247L159.81 19.1944L160.285 19.3511ZM160.925 17.4117L161.245 16.442L160.77 16.2853L160.45 17.255L160.925 17.4117ZM161.565 15.4723L161.725 14.9875L161.251 14.8307L161.09 15.3156L161.565 15.4723ZM161.488 15.1591H162.028V14.6591H161.488V15.1591ZM163.107 15.1591H164.187V14.6591H163.107V15.1591ZM165.266 15.1591H166.346V14.6591H165.266V15.1591ZM167.425 15.1591H168.505V14.6591H167.425V15.1591ZM169.585 15.1591H170.664V14.6591H169.585V15.1591ZM171.744 15.1591H172.283V14.6591H171.744V15.1591ZM172.046 14.9875L172.206 15.4723L172.681 15.3156L172.521 14.8307L172.046 14.9875ZM172.526 16.442L172.846 17.4117L173.321 17.255L173.001 16.2853L172.526 16.442ZM173.166 18.3814L173.486 19.3511L173.961 19.1944L173.641 18.2247L173.166 18.3814ZM173.806 20.3208L174.126 21.2905L174.601 21.1338L174.281 20.1641L173.806 20.3208ZM174.447 22.2602L174.767 23.2299L175.241 23.0732L174.921 22.1035L174.447 22.2602ZM175.087 24.1996L175.407 25.1693L175.882 25.0125L175.562 24.0428L175.087 24.1996ZM175.727 26.139L176.047 27.1087L176.522 26.9519L176.202 25.9822L175.727 26.139ZM176.367 28.0784L176.687 29.0481L177.162 28.8913L176.842 27.9216L176.367 28.0784ZM177.007 30.0178L177.327 30.9875L177.802 30.8307L177.482 29.861L177.007 30.0178ZM177.647 31.9571L177.967 32.9268L178.442 32.7701L178.122 31.8004L177.647 31.9571ZM178.287 33.8965L178.608 34.8662L179.082 34.7095L178.762 33.7398L178.287 33.8965ZM178.928 35.8359L179.248 36.8056L179.722 36.6489L179.402 35.6792L178.928 35.8359ZM179.568 37.7753L179.888 38.745L180.363 38.5883L180.043 37.6186L179.568 37.7753ZM180.208 39.7147L180.528 40.6844L181.003 40.5277L180.683 39.558L180.208 39.7147ZM180.848 41.6541L181.168 42.6238L181.643 42.4671L181.323 41.4974L180.848 41.6541ZM181.488 43.5935L181.648 44.0784L182.123 43.9216L181.963 43.4368L181.488 43.5935ZM181.886 43.75H181.353V44.25H181.886V43.75ZM180.288 43.75H179.222V44.25H180.288V43.75ZM178.157 43.75H177.092V44.25H178.157V43.75ZM176.026 43.75H174.961V44.25H176.026V43.75ZM173.896 43.75H173.363V44.25H173.896V43.75ZM173.602 43.9277L173.458 43.4487L172.979 43.5932L173.124 44.0723L173.602 43.9277ZM173.168 42.4905L172.879 41.5323L172.4 41.6768L172.69 42.635L173.168 42.4905ZM172.59 40.5742L172.301 39.616L171.822 39.7605L172.111 40.7187L172.59 40.5742ZM172.011 38.6579L171.722 37.6997L171.243 37.8442L171.533 38.8024L172.011 38.6579ZM171.433 36.7415L171.144 35.7834L170.665 35.9279L170.954 36.886L171.433 36.7415ZM170.854 34.8252L170.565 33.8671L170.086 34.0116L170.376 34.9697L170.854 34.8252ZM170.276 32.9089L169.987 31.9507L169.508 32.0952L169.797 33.0534L170.276 32.9089ZM169.697 30.9926L169.408 30.0344L168.929 30.1789L169.219 31.1371L169.697 30.9926ZM169.119 29.0763L168.83 28.1181L168.351 28.2626L168.64 29.2208L169.119 29.0763ZM168.54 27.1599L168.251 26.2018L167.772 26.3463L168.062 27.3044L168.54 27.1599ZM167.962 25.2436L167.673 24.2854L167.194 24.43L167.483 25.3881L167.962 25.2436ZM167.383 23.3273L167.239 22.8482L166.76 22.9927L166.905 23.4718L167.383 23.3273ZM166.999 22.6705H166.942V23.1705H166.999V22.6705ZM166.829 22.6705H166.772V23.1705H166.829V22.6705ZM166.533 22.8482L166.388 23.3273L166.867 23.4718L167.011 22.9927L166.533 22.8482ZM166.099 24.2854L165.81 25.2436L166.288 25.3881L166.577 24.4299L166.099 24.2854ZM165.52 26.2018L165.231 27.1599L165.71 27.3044L165.999 26.3463L165.52 26.2018ZM164.942 28.1181L164.653 29.0763L165.131 29.2208L165.42 28.2626L164.942 28.1181ZM164.363 30.0344L164.074 30.9926L164.553 31.1371L164.842 30.1789L164.363 30.0344ZM163.785 31.9507L163.495 32.9089L163.974 33.0534L164.263 32.0952L163.785 31.9507ZM163.206 33.8671L162.917 34.8252L163.396 34.9697L163.685 34.0116L163.206 33.8671ZM162.628 35.7834L162.338 36.7415L162.817 36.886L163.106 35.9279L162.628 35.7834ZM162.049 37.6997L161.76 38.6579L162.239 38.8024L162.528 37.8442L162.049 37.6997ZM161.471 39.616L161.181 40.5742L161.66 40.7187L161.949 39.7605L161.471 39.616ZM160.892 41.5323L160.603 42.4905L161.082 42.635L161.371 41.6768L160.892 41.5323ZM160.314 43.4487L160.169 43.9277L160.648 44.0723L160.792 43.5932L160.314 43.4487ZM158.567 32.5227V33.0152H159.067V32.5227H158.567ZM158.567 34V34.9848H159.067V34H158.567ZM158.567 35.9697V36.9545H159.067V35.9697H158.567ZM158.567 37.9394V38.4318H159.067V37.9394H158.567ZM158.817 38.6818H159.318V38.1818H158.817V38.6818ZM160.32 38.6818H161.321V38.1818H160.32V38.6818ZM162.322 38.6818H163.324V38.1818H162.322V38.6818ZM164.325 38.6818H165.327V38.1818H164.325V38.6818ZM166.328 38.6818H167.33V38.1818H166.328V38.6818ZM168.331 38.6818H169.332V38.1818H168.331V38.6818ZM170.334 38.6818H171.335V38.1818H170.334V38.6818ZM172.337 38.6818H173.338V38.1818H172.337V38.6818ZM174.339 38.6818H174.84V38.1818H174.339V38.6818ZM175.09 38.4318V37.9394H174.59V38.4318H175.09ZM175.09 36.9545V35.9697H174.59V36.9545H175.09ZM175.09 34.9848V34H174.59V34.9848H175.09ZM175.09 33.0152V32.5227H174.59V33.0152H175.09ZM174.84 32.2727H174.339V32.7727H174.84V32.2727ZM173.338 32.2727H172.337V32.7727H173.338V32.2727ZM171.335 32.2727H170.334V32.7727H171.335V32.2727ZM169.332 32.2727H168.331V32.7727H169.332V32.2727ZM167.33 32.2727H166.328V32.7727H167.33V32.2727ZM165.327 32.2727H164.325V32.7727H165.327V32.2727ZM163.324 32.2727H162.322V32.7727H163.324V32.2727ZM161.321 32.2727H160.32V32.7727H161.321V32.2727ZM159.318 32.2727H158.817V32.7727H159.318V32.2727ZM160.408 44V44.5H160.78L160.887 44.1445L160.408 44ZM151.886 44L151.411 43.8433L151.194 44.5H151.886V44ZM161.488 14.9091V14.4091H161.126L161.013 14.7524L161.488 14.9091ZM172.283 14.9091L172.758 14.7524L172.645 14.4091H172.283V14.9091ZM181.886 44V44.5H182.577L182.36 43.8433L181.886 44ZM173.363 44L172.884 44.1445L172.992 44.5H173.363V44ZM166.999 22.9205L167.478 22.776L167.371 22.4205H166.999V22.9205ZM166.772 22.9205V22.4205H166.401L166.293 22.776L166.772 22.9205ZM158.817 32.5227V32.0227H158.317V32.5227H158.817ZM174.84 32.5227H175.34V32.0227H174.84V32.5227ZM174.84 38.4318V38.9318H175.34V38.4318H174.84ZM158.817 38.4318H158.317V38.9318H158.817V38.4318ZM160.408 43.5H159.876V44.5H160.408V43.5ZM158.81 43.5H157.745V44.5H158.81V43.5ZM156.68 43.5H155.614V44.5H156.68V43.5ZM154.549 43.5H153.484V44.5H154.549V43.5ZM152.418 43.5H151.886V44.5H152.418V43.5ZM152.36 44.1567L152.52 43.6719L151.571 43.3584L151.411 43.8433L152.36 44.1567ZM152.841 42.7022L153.161 41.7325L152.211 41.419L151.891 42.3887L152.841 42.7022ZM153.481 40.7628L153.801 39.7931L152.851 39.4796L152.531 40.4493L153.481 40.7628ZM154.121 38.8234L154.441 37.8537L153.491 37.5402L153.171 38.5099L154.121 38.8234ZM154.761 36.884L155.081 35.9143L154.131 35.6009L153.811 36.5706L154.761 36.884ZM155.401 34.9446L155.721 33.9749L154.772 33.6615L154.452 34.6312L155.401 34.9446ZM156.041 33.0052L156.361 32.0355L155.412 31.7221L155.092 32.6918L156.041 33.0052ZM156.681 31.0658L157.002 30.0961L156.052 29.7827L155.732 30.7524L156.681 31.0658ZM157.322 29.1264L157.642 28.1567L156.692 27.8433L156.372 28.813L157.322 29.1264ZM157.962 27.187L158.282 26.2173L157.332 25.9039L157.012 26.8736L157.962 27.187ZM158.602 25.2476L158.922 24.2779L157.972 23.9645L157.652 24.9342L158.602 25.2476ZM159.242 23.3082L159.562 22.3385L158.613 22.0251L158.292 22.9948L159.242 23.3082ZM159.882 21.3688L160.202 20.3991L159.253 20.0857L158.933 21.0554L159.882 21.3688ZM160.522 19.4295L160.842 18.4598L159.893 18.1463L159.573 19.116L160.522 19.4295ZM161.163 17.4901L161.483 16.5204L160.533 16.2069L160.213 17.1766L161.163 17.4901ZM161.803 15.5507L161.963 15.0658L161.013 14.7524L160.853 15.2372L161.803 15.5507ZM161.488 15.4091H162.028V14.4091H161.488V15.4091ZM163.107 15.4091H164.187V14.4091H163.107V15.4091ZM165.266 15.4091H166.346V14.4091H165.266V15.4091ZM167.425 15.4091H168.505V14.4091H167.425V15.4091ZM169.585 15.4091H170.664V14.4091H169.585V15.4091ZM171.744 15.4091H172.283V14.4091H171.744V15.4091ZM171.809 15.0658L171.969 15.5507L172.918 15.2372L172.758 14.7524L171.809 15.0658ZM172.289 16.5204L172.609 17.4901L173.558 17.1766L173.238 16.2069L172.289 16.5204ZM172.929 18.4598L173.249 19.4294L174.199 19.116L173.878 18.1463L172.929 18.4598ZM173.569 20.3991L173.889 21.3688L174.839 21.0554L174.519 20.0857L173.569 20.3991ZM174.209 22.3385L174.529 23.3082L175.479 22.9948L175.159 22.0251L174.209 22.3385ZM174.849 24.2779L175.169 25.2476L176.119 24.9342L175.799 23.9645L174.849 24.2779ZM175.489 26.2173L175.81 27.187L176.759 26.8736L176.439 25.9039L175.489 26.2173ZM176.13 28.1567L176.45 29.1264L177.399 28.813L177.079 27.8433L176.13 28.1567ZM176.77 30.0961L177.09 31.0658L178.039 30.7524L177.719 29.7827L176.77 30.0961ZM177.41 32.0355L177.73 33.0052L178.68 32.6918L178.36 31.7221L177.41 32.0355ZM178.05 33.9749L178.37 34.9446L179.32 34.6312L179 33.6615L178.05 33.9749ZM178.69 35.9143L179.01 36.884L179.96 36.5705L179.64 35.6009L178.69 35.9143ZM179.33 37.8537L179.65 38.8234L180.6 38.5099L180.28 37.5402L179.33 37.8537ZM179.971 39.7931L180.291 40.7628L181.24 40.4493L180.92 39.4796L179.971 39.7931ZM180.611 41.7325L180.931 42.7022L181.88 42.3887L181.56 41.419L180.611 41.7325ZM181.251 43.6719L181.411 44.1567L182.36 43.8433L182.2 43.3584L181.251 43.6719ZM181.886 43.5H181.353V44.5H181.886V43.5ZM180.288 43.5H179.222V44.5H180.288V43.5ZM178.157 43.5H177.092V44.5H178.157V43.5ZM176.026 43.5H174.961V44.5H176.026V43.5ZM173.896 43.5H173.363V44.5H173.896V43.5ZM173.842 43.8555L173.697 43.3764L172.74 43.6654L172.884 44.1445L173.842 43.8555ZM173.408 42.4183L173.118 41.4601L172.161 41.7491L172.45 42.7073L173.408 42.4183ZM172.829 40.5019L172.54 39.5438L171.583 39.8328L171.872 40.7909L172.829 40.5019ZM172.251 38.5856L171.961 37.6274L171.004 37.9165L171.293 38.8746L172.251 38.5856ZM171.672 36.6693L171.383 35.7111L170.426 36.0001L170.715 36.9583L171.672 36.6693ZM171.094 34.753L170.804 33.7948L169.847 34.0838L170.136 35.042L171.094 34.753ZM170.515 32.8366L170.226 31.8785L169.269 32.1675L169.558 33.1256L170.515 32.8366ZM169.937 30.9203L169.647 29.9622L168.69 30.2512L168.979 31.2093L169.937 30.9203ZM169.358 29.004L169.069 28.0458L168.112 28.3348L168.401 29.293L169.358 29.004ZM168.78 27.0877L168.49 26.1295L167.533 26.4185L167.822 27.3767L168.78 27.0877ZM168.201 25.1714L167.912 24.2132L166.955 24.5022L167.244 25.4604L168.201 25.1714ZM167.623 23.255L167.478 22.776L166.521 23.065L166.665 23.544L167.623 23.255ZM166.999 22.4205H166.942V23.4205H166.999V22.4205ZM166.829 22.4205H166.772V23.4205H166.829V22.4205ZM166.293 22.776L166.149 23.255L167.106 23.544L167.251 23.065L166.293 22.776ZM165.859 24.2132L165.57 25.1714L166.528 25.4604L166.817 24.5022L165.859 24.2132ZM165.281 26.1295L164.992 27.0877L165.949 27.3767L166.238 26.4185L165.281 26.1295ZM164.702 28.0458L164.413 29.004L165.371 29.293L165.66 28.3348L164.702 28.0458ZM164.124 29.9622L163.835 30.9203L164.792 31.2093L165.081 30.2512L164.124 29.9622ZM163.545 31.8785L163.256 32.8366L164.213 33.1256L164.503 32.1675L163.545 31.8785ZM162.967 33.7948L162.678 34.753L163.635 35.042L163.924 34.0838L162.967 33.7948ZM162.388 35.7111L162.099 36.6693L163.056 36.9583L163.346 36.0001L162.388 35.7111ZM161.81 37.6275L161.521 38.5856L162.478 38.8746L162.767 37.9165L161.81 37.6275ZM161.231 39.5438L160.942 40.5019L161.899 40.7909L162.189 39.8328L161.231 39.5438ZM160.653 41.4601L160.364 42.4183L161.321 42.7073L161.61 41.7491L160.653 41.4601ZM160.074 43.3764L159.93 43.8555L160.887 44.1445L161.032 43.6654L160.074 43.3764ZM158.317 32.5227V33.0152H159.317V32.5227H158.317ZM158.317 34V34.9848H159.317V34H158.317ZM158.317 35.9697V36.9545H159.317V35.9697H158.317ZM158.317 37.9394V38.4318H159.317V37.9394H158.317ZM158.817 38.9318H159.318V37.9318H158.817V38.9318ZM160.32 38.9318H161.321V37.9318H160.32V38.9318ZM162.322 38.9318H163.324V37.9318H162.322V38.9318ZM164.325 38.9318H165.327V37.9318H164.325V38.9318ZM166.328 38.9318H167.33V37.9318H166.328V38.9318ZM168.331 38.9318H169.332V37.9318H168.331V38.9318ZM170.334 38.9318H171.335V37.9318H170.334V38.9318ZM172.337 38.9318H173.338V37.9318H172.337V38.9318ZM174.339 38.9318H174.84V37.9318H174.339V38.9318ZM175.34 38.4318V37.9394H174.34V38.4318H175.34ZM175.34 36.9545V35.9697H174.34V36.9545H175.34ZM175.34 34.9848V34H174.34V34.9848H175.34ZM175.34 33.0152V32.5227H174.34V33.0152H175.34ZM174.84 32.0227H174.339V33.0227H174.84V32.0227ZM173.338 32.0227H172.337V33.0227H173.338V32.0227ZM171.335 32.0227H170.334V33.0227H171.335V32.0227ZM169.332 32.0227H168.331V33.0227H169.332V32.0227ZM167.33 32.0227H166.328V33.0227H167.33V32.0227ZM165.327 32.0227H164.325V33.0227H165.327V32.0227ZM163.324 32.0227H162.322V33.0227H163.324V32.0227ZM161.321 32.0227H160.32V33.0227H161.321V32.0227ZM159.318 32.0227H158.817V33.0227H159.318V32.0227Z" fill="#ECD8FC"/>
</svg>
