<svg width="166" height="30" viewBox="0 0 166 30" fill="none" xmlns="http://www.w3.org/2000/svg">
<path d="M0.875 0.90909H10.7045L17.4659 17.3864H17.8068L24.5682 0.90909H34.3977V30H26.6705V13.1818H26.4432L19.9659 29.7727H15.3068L8.82955 13.0682H8.60227V30H0.875V0.90909ZM53.6662 30H45.1435L54.7457 0.90909H65.5412L75.1435 30H66.6207L60.2571 8.92045H60.0298L53.6662 30ZM52.0753 18.5227H68.098V24.4318H52.0753V18.5227ZM85.9141 30V0.90909H106.369V7.27273H93.8118V12.2727H105.119V18.6364H93.8118V30H85.9141ZM125.14 0.90909V30H117.242V0.90909H125.14ZM144.408 30H135.886L145.488 0.90909H156.283L165.886 30H157.363L150.999 8.92045H150.772L144.408 30ZM142.817 18.5227H158.84V24.4318H142.817V18.5227Z" fill="#2D0066"/>
</svg>
